<svg width="11" height="13" viewBox="0 0 11 13" fill="none" xmlns="http://www.w3.org/2000/svg">
<path d="M8.45508 12.2028H1.91854C1.01528 12.2028 0.277344 11.3478 0.277344 10.3012V2.72732C0.277344 1.68072 1.01528 0.825684 1.91854 0.825684H8.45508C9.35835 0.825684 10.0963 1.68072 10.0963 2.72732V10.3012C10.0963 11.3525 9.35835 12.2028 8.45508 12.2028ZM1.91854 1.44711C1.30964 1.44711 0.813657 2.0218 0.813657 2.72732V10.3012C0.813657 11.0067 1.30964 11.5814 1.91854 11.5814H8.45508C9.06398 11.5814 9.55997 11.0067 9.55997 10.3012V2.72732C9.55997 2.0218 9.06398 1.44711 8.45508 1.44711H1.91854Z" fill="black"/>
<path d="M5.18628 9.43223C4.51286 9.43223 3.87977 9.12853 3.40395 8.57719C2.92812 8.02585 2.66602 7.29229 2.66602 6.51201C2.66602 5.73173 2.92812 4.99817 3.40395 4.44684C3.87977 3.8955 4.51286 3.5918 5.18628 3.5918C5.85969 3.5918 6.49278 3.8955 6.9686 4.44684C7.44443 4.99817 7.70653 5.73173 7.70653 6.51201C7.70653 7.29229 7.44443 8.02585 6.9686 8.57719C6.49278 9.12853 5.85969 9.43223 5.18628 9.43223ZM5.18628 4.21789C4.09349 4.21789 3.20233 5.24581 3.20233 6.51669C3.20233 7.78757 4.08946 8.81548 5.18628 8.81548C6.28309 8.81548 7.17022 7.78757 7.17022 6.51669C7.17022 5.24581 6.27906 4.21789 5.18628 4.21789Z" fill="black"/>
<path d="M8.31006 2.97049C8.57731 2.97049 8.79396 2.71946 8.79396 2.4098C8.79396 2.10015 8.57731 1.84912 8.31006 1.84912C8.04282 1.84912 7.82617 2.10015 7.82617 2.4098C7.82617 2.71946 8.04282 2.97049 8.31006 2.97049Z" fill="black"/>
</svg>
