<svg width="14" height="13" viewBox="0 0 14 13" fill="none" xmlns="http://www.w3.org/2000/svg">
<path d="M6.92525 12.4548C3.50267 12.4548 0.728516 9.67913 0.728516 6.2547C0.728516 2.83027 3.50267 0.0512695 6.92859 0.0512695C10.3512 0.0512695 13.1287 2.82693 13.1287 6.2547C13.1253 9.67913 10.3512 12.4548 6.92525 12.4548Z" fill="#151817"/>
<path d="M7.53292 6.98987V10.7755H5.79156V6.98987H4.34766V5.4549H5.79156V4.89308C5.79156 2.81969 6.65723 1.72949 8.48884 1.72949C9.05036 1.72949 9.19073 1.81979 9.49823 1.89336V3.41495C9.15397 3.35476 9.05704 3.32132 8.69941 3.32132C8.27493 3.32132 8.04765 3.44171 7.84042 3.67914C7.63319 3.91658 7.52958 4.32791 7.52958 4.91649V5.4549H9.49823L8.97014 6.98987H7.53292Z" fill="white"/>
</svg>
