<svg width="13" height="13" viewBox="0 0 13 13" fill="none" xmlns="http://www.w3.org/2000/svg">
<rect x="0.212891" y="0.0664062" width="12.411" height="12.411" fill="#151817"/>
<path d="M3.86587 4.39404H1.91992V10.6029H3.86587V4.39404Z" fill="white"/>
<path d="M9.1263 4.25503C9.05456 4.24606 8.97833 4.24157 8.90211 4.23709C7.81256 4.19222 7.19828 4.83824 6.98306 5.11638C6.92477 5.19265 6.89787 5.23751 6.89787 5.23751V4.40756H5.03711V10.6165H6.89787H6.98306C6.98306 9.9839 6.98306 9.35583 6.98306 8.72328C6.98306 8.38233 6.98306 8.04138 6.98306 7.70043C6.98306 7.27873 6.95167 6.83011 7.16241 6.4443C7.34176 6.12129 7.66459 5.95978 8.02778 5.95978C9.10388 5.95978 9.1263 6.93329 9.1263 7.02302C9.1263 7.0275 9.1263 7.03199 9.1263 7.03199V10.6434H11.0723V6.59234C11.0723 5.21059 10.3683 4.38962 9.1263 4.25503Z" fill="white"/>
<path d="M2.89308 3.59061C3.51684 3.59061 4.02249 3.08468 4.02249 2.46058C4.02249 1.83649 3.51684 1.33057 2.89308 1.33057C2.26933 1.33057 1.76367 1.83649 1.76367 2.46058C1.76367 3.08468 2.26933 3.59061 2.89308 3.59061Z" fill="white"/>
</svg>
