<svg width="14" height="13" viewBox="0 0 14 13" fill="none" xmlns="http://www.w3.org/2000/svg">
<path d="M6.99514 12.4808C3.56956 12.4808 0.792969 9.70271 0.792969 6.27528C0.792969 2.84785 3.56956 0.0664062 6.99848 0.0664062C10.4241 0.0664062 13.204 2.8445 13.204 6.27528C13.2007 9.70271 10.4241 12.4808 6.99514 12.4808Z" fill="#151817"/>
<path d="M7.60408 7.0106V10.7995H5.86118V7.0106H4.41602V5.47428H5.86118V4.91196C5.86118 2.83676 6.72761 1.74561 8.56083 1.74561C9.12284 1.74561 9.26334 1.83598 9.57111 1.90961V3.43255C9.22654 3.3723 9.12953 3.33883 8.77158 3.33883C8.34673 3.33883 8.11925 3.45932 7.91184 3.69697C7.70444 3.93461 7.60073 4.3463 7.60073 4.93539V5.47428H9.57111L9.04255 7.0106H7.60408Z" fill="white"/>
</svg>
