<svg width="13" height="13" viewBox="0 0 13 13" fill="none" xmlns="http://www.w3.org/2000/svg">
<rect x="0.175781" y="0.0512695" width="12.4002" height="12.4002" fill="#151817"/>
<path d="M3.8251 4.375H1.88086V10.5784H3.8251V4.375Z" fill="white"/>
<path d="M9.0817 4.23597C9.01002 4.22701 8.93387 4.22252 8.85771 4.21804C7.76911 4.17322 7.15537 4.81867 6.94034 5.09657C6.8821 5.17277 6.85522 5.21759 6.85522 5.21759V4.38837H4.99609V10.5918H6.85522H6.94034C6.94034 9.95982 6.94034 9.3323 6.94034 8.7003C6.94034 8.35965 6.94034 8.019 6.94034 7.67835C6.94034 7.25702 6.90898 6.80879 7.11953 6.42332C7.29872 6.10059 7.62127 5.93923 7.98414 5.93923C9.0593 5.93923 9.0817 6.91188 9.0817 7.00153C9.0817 7.00601 9.0817 7.01049 9.0817 7.01049V10.6187H11.0259V6.57123C11.0259 5.19069 10.3226 4.37044 9.0817 4.23597Z" fill="white"/>
<path d="M2.85353 3.57302C3.47702 3.57302 3.98245 3.06731 3.98245 2.44349C3.98245 1.81967 3.47702 1.31396 2.85353 1.31396C2.23004 1.31396 1.72461 1.81967 1.72461 2.44349C1.72461 3.06731 2.23004 3.57302 2.85353 3.57302Z" fill="white"/>
</svg>
