<svg width="13" height="11" viewBox="0 0 13 11" fill="none" xmlns="http://www.w3.org/2000/svg">
<path d="M0.400391 9.52117C1.65175 9.59163 2.746 9.29895 3.81318 8.52388C2.73517 8.3396 1.98761 7.84638 1.58133 6.82741C1.89552 6.78405 2.17179 6.86535 2.49681 6.73527C1.43506 6.26914 0.747088 5.56996 0.720002 4.36129C1.05586 4.38839 1.31046 4.61061 1.71133 4.57809C0.73625 3.62416 0.43831 2.58351 1.05045 1.32063C2.06886 2.49136 3.26063 3.28812 4.71783 3.6621C4.79909 3.68378 4.87493 3.70546 4.95619 3.72172C5.32997 3.80844 5.77418 3.99272 6.0017 3.96562C6.39173 3.91684 6.00169 3.46698 6.0992 2.88161C6.40798 1.06047 8.41232 0.231209 9.89661 1.29896C10.33 1.61332 10.6713 1.6079 11.0992 1.4182C11.3213 1.32064 11.5488 1.22308 11.8143 1.10926C11.7547 1.62958 11.3538 1.91684 11.0342 2.30167C11.3972 2.38297 11.6897 2.27999 12.0255 2.17159C11.9118 2.54557 11.6301 2.75695 11.3755 2.96291C11.11 3.17429 11.0071 3.39652 10.9963 3.7434C10.8338 8.99543 4.86951 13.055 0.790421 9.82469C0.389554 9.51575 0.774172 9.83012 0.400391 9.52117Z" fill="#151817"/>
</svg>
