<svg width="11" height="13" viewBox="0 0 11 13" fill="none" xmlns="http://www.w3.org/2000/svg">
<path d="M8.55601 12.2265H2.01373C1.10967 12.2265 0.371094 11.3707 0.371094 10.3232V2.74266C0.371094 1.69514 1.10967 0.839355 2.01373 0.839355H8.55601C9.46006 0.839355 10.1986 1.69514 10.1986 2.74266V10.3232C10.1986 11.3754 9.46006 12.2265 8.55601 12.2265ZM2.01373 1.46132C1.4043 1.46132 0.907877 2.03652 0.907877 2.74266V10.3232C0.907877 11.0293 1.4043 11.6045 2.01373 11.6045H8.55601C9.16543 11.6045 9.66186 11.0293 9.66186 10.3232V2.74266C9.66186 2.03652 9.16543 1.46132 8.55601 1.46132H2.01373Z" fill="black"/>
<path d="M5.28224 9.45297C4.60823 9.45297 3.97459 9.14901 3.49834 8.59719C3.0221 8.04537 2.75977 7.31116 2.75977 6.5302C2.75977 5.74923 3.0221 5.01503 3.49834 4.46321C3.97459 3.91139 4.60823 3.60742 5.28224 3.60742C5.95624 3.60742 6.58988 3.91139 7.06613 4.46321C7.54237 5.01503 7.8047 5.74923 7.8047 6.5302C7.8047 7.31116 7.54237 8.04537 7.06613 8.59719C6.58988 9.14901 5.95624 9.45297 5.28224 9.45297ZM5.28224 4.23407C4.18849 4.23407 3.29655 5.26289 3.29655 6.53488C3.29655 7.80687 4.18446 8.83568 5.28224 8.83568C6.38001 8.83568 7.26792 7.80687 7.26792 6.53488C7.26792 5.26289 6.37598 4.23407 5.28224 4.23407Z" fill="black"/>
<path d="M8.40988 2.98611C8.67725 2.98611 8.89399 2.73497 8.89399 2.42518C8.89399 2.11539 8.67725 1.86426 8.40988 1.86426C8.14252 1.86426 7.92578 2.11539 7.92578 2.42518C7.92578 2.73497 8.14252 2.98611 8.40988 2.98611Z" fill="black"/>
</svg>
