<svg width="13" height="11" viewBox="0 0 13 11" fill="none" xmlns="http://www.w3.org/2000/svg">
<path d="M0.410156 9.54345C1.66261 9.61397 2.75783 9.32103 3.82594 8.54528C2.74698 8.36084 1.99877 7.86718 1.59213 6.84732C1.9066 6.80392 2.18311 6.88529 2.50842 6.7551C1.44573 6.28856 0.757157 5.58877 0.730048 4.37904C1.0662 4.40616 1.32103 4.62858 1.72225 4.59603C0.74631 3.64126 0.448109 2.5997 1.06078 1.33572C2.08009 2.50747 3.2729 3.30492 4.73139 3.67924C4.81271 3.70093 4.88862 3.72263 4.96995 3.73891C5.34406 3.8257 5.78866 4.01015 6.01637 3.98302C6.40675 3.9342 6.01637 3.48394 6.11396 2.89806C6.42301 1.07533 8.42911 0.245336 9.9147 1.31402C10.3485 1.62866 10.69 1.62323 11.1184 1.43337C11.3407 1.33572 11.5684 1.23808 11.834 1.12415C11.7744 1.64494 11.3732 1.93245 11.0533 2.31761C11.4166 2.39898 11.7093 2.29591 12.0455 2.18741C11.9316 2.56173 11.6497 2.77329 11.3949 2.97943C11.1292 3.191 11.0262 3.41342 11.0153 3.76061C10.8527 9.01724 4.8832 13.0804 0.800528 9.84723C0.39931 9.53802 0.784266 9.85266 0.410156 9.54345Z" fill="#151817"/>
</svg>
